<svg width="74" height="74" viewBox="0 0 74 74" fill="none" xmlns="http://www.w3.org/2000/svg">
<circle cx="37" cy="37" r="37" fill="#E6F6FF"/>
<g clip-path="url(#clip0_106_90)">
<path d="M25.75 48.25H48.25M29.18 34.24L45.25 26.94M42.07 25.75L45.25 26.94L44.06 30.13M31 41.25H28C27.8019 41.2526 27.6126 41.3324 27.4725 41.4725C27.3324 41.6126 27.2526 41.8019 27.25 42V48.25H31.75V42C31.7474 41.8019 31.6676 41.6126 31.5275 41.4725C31.3874 41.3324 31.1981 41.2526 31 41.25ZM38.5 37.25H35.5C35.3019 37.2526 35.1126 37.3324 34.9725 37.4725C34.8324 37.6126 34.7526 37.8019 34.75 38V48.25H39.25V38C39.2474 37.8019 39.1676 37.6126 39.0275 37.4725C38.8874 37.3324 38.6981 37.2526 38.5 37.25ZM46 33.25H43C42.8019 33.2526 42.6126 33.3324 42.4725 33.4725C42.3324 33.6126 42.2526 33.8019 42.25 34V48.25H46.75V34C46.7474 33.8019 46.6676 33.6126 46.5275 33.4725C46.3874 33.3324 46.1981 33.2526 46 33.25Z" stroke="#0F0B56" stroke-width="1.5" stroke-linecap="round" stroke-linejoin="round"/>
</g>
<defs>
<clipPath id="clip0_106_90">
<rect width="24" height="24" fill="white" transform="translate(25 25)"/>
</clipPath>
</defs>
</svg>
