<svg width="25" height="25" viewBox="0 0 25 25" fill="none" xmlns="http://www.w3.org/2000/svg">
<path fill-rule="evenodd" clip-rule="evenodd" d="M15.9879 22.3675V14.493H18.6313L19.0268 11.4246H15.9868V9.46538C15.9868 8.57678 16.2339 7.97081 17.5089 7.97081H19.1336V5.22569C18.3468 5.14115 17.5559 5.10042 16.7646 5.10368C14.4221 5.10368 12.8188 6.5342 12.8188 9.16037V11.4246H10.1672V14.493H12.8177V22.3675H3.1559C2.5357 22.3675 2.03345 21.8652 2.03345 21.245V3.15566C2.03345 2.53546 2.5357 2.0332 3.1559 2.0332H21.2453C21.8655 2.0332 22.3677 2.53546 22.3677 3.15566V21.245C22.3677 21.8652 21.8655 22.3675 21.2453 22.3675H15.9879Z" fill="#F7F7F7"/>
</svg>
