<svg width="20" height="20" viewBox="0 0 20 20" fill="none" xmlns="http://www.w3.org/2000/svg">
<path d="M8.40008 9.04984C8.44175 8.77484 8.53341 8.53317 8.65008 8.32484C8.76675 8.1165 8.93341 7.9415 9.14175 7.80817C9.34175 7.68317 9.59175 7.62484 9.90008 7.6165C10.0917 7.62484 10.2667 7.65817 10.4251 7.72484C10.5917 7.79984 10.7417 7.89984 10.8584 8.02484C10.9751 8.14984 11.0667 8.29984 11.1417 8.4665C11.2167 8.63317 11.2501 8.8165 11.2584 8.99984H12.7501C12.7334 8.60817 12.6584 8.24984 12.5167 7.92484C12.3751 7.59984 12.1834 7.3165 11.9334 7.08317C11.6834 6.84984 11.3834 6.6665 11.0334 6.53317C10.6834 6.39984 10.3001 6.3415 9.87508 6.3415C9.33342 6.3415 8.85841 6.43317 8.45841 6.62484C8.05841 6.8165 7.72508 7.0665 7.45841 7.3915C7.19175 7.7165 6.99175 8.0915 6.86675 8.52484C6.74175 8.95817 6.66675 9.40817 6.66675 9.8915V10.1165C6.66675 10.5998 6.73341 11.0498 6.85841 11.4832C6.98341 11.9165 7.18341 12.2915 7.45008 12.6082C7.71675 12.9248 8.05008 13.1832 8.45008 13.3665C8.85008 13.5498 9.32508 13.6498 9.86675 13.6498C10.2584 13.6498 10.6251 13.5832 10.9667 13.4582C11.3084 13.3332 11.6084 13.1582 11.8667 12.9332C12.1251 12.7082 12.3334 12.4498 12.4834 12.1498C12.6334 11.8498 12.7251 11.5332 12.7334 11.1915H11.2417C11.2334 11.3665 11.1917 11.5248 11.1167 11.6748C11.0417 11.8248 10.9417 11.9498 10.8167 12.0582C10.6917 12.1665 10.5501 12.2498 10.3834 12.3082C10.2251 12.3665 10.0584 12.3832 9.88341 12.3915C9.58341 12.3832 9.33341 12.3248 9.14175 12.1998C8.93341 12.0665 8.76675 11.8915 8.65008 11.6832C8.53341 11.4748 8.44175 11.2248 8.40008 10.9498C8.35841 10.6748 8.33341 10.3915 8.33341 10.1165V9.8915C8.33341 9.59984 8.35841 9.32484 8.40008 9.04984ZM10.0001 1.6665C5.40008 1.6665 1.66675 5.39984 1.66675 9.99984C1.66675 14.5998 5.40008 18.3332 10.0001 18.3332C14.6001 18.3332 18.3334 14.5998 18.3334 9.99984C18.3334 5.39984 14.6001 1.6665 10.0001 1.6665ZM10.0001 16.6665C6.32508 16.6665 3.33341 13.6748 3.33341 9.99984C3.33341 6.32484 6.32508 3.33317 10.0001 3.33317C13.6751 3.33317 16.6667 6.32484 16.6667 9.99984C16.6667 13.6748 13.6751 16.6665 10.0001 16.6665Z" fill="#F7F7F7"/>
</svg>
