<svg width="20" height="20" viewBox="0 0 20 20" fill="none" xmlns="http://www.w3.org/2000/svg">
<path d="M13.3667 16.2552C11.048 15.6606 8.93165 14.4539 7.23901 12.7612C5.54637 11.0686 4.33966 8.95223 3.74508 6.6335C3.29091 4.84933 4.82508 3.3335 6.66675 3.3335H7.50008C7.96008 3.3335 8.32925 3.70766 8.37508 4.16516C8.4505 4.92383 8.62967 5.66855 8.90758 6.3785L7.64091 7.64516C8.62959 9.70756 10.2927 11.3707 12.3551 12.3593L13.6217 11.0927C14.3317 11.3709 15.0764 11.5503 15.8351 11.626C16.2934 11.671 16.6667 12.0402 16.6667 12.5002V13.3335C16.6667 15.1752 15.1509 16.7093 13.3667 16.2552Z" stroke="#F7F7F7" stroke-width="1.25" stroke-linecap="round" stroke-linejoin="round"/>
</svg>
