<svg width="20" height="20" viewBox="0 0 20 20" fill="none" xmlns="http://www.w3.org/2000/svg">
<path d="M9.40667 17.2608C9.24667 17.1008 9.16667 16.9028 9.16667 16.6667V12L5.875 15.3125C5.70834 15.4792 5.51056 15.5625 5.28167 15.5625C5.05278 15.5625 4.85472 15.4792 4.6875 15.3125C4.52028 15.1458 4.43695 14.9481 4.4375 14.7192C4.43806 14.4903 4.52139 14.2922 4.6875 14.125L8 10.8333H3.33334C3.09723 10.8333 2.89945 10.7533 2.74 10.5933C2.58056 10.4333 2.50056 10.2356 2.5 10C2.49945 9.76445 2.57945 9.56667 2.74 9.40667C2.90056 9.24667 3.09834 9.16667 3.33334 9.16667H8L4.6875 5.875C4.52084 5.70834 4.4375 5.51056 4.4375 5.28167C4.4375 5.05278 4.52084 4.85472 4.6875 4.6875C4.85417 4.52028 5.05222 4.43695 5.28167 4.4375C5.51111 4.43806 5.70889 4.52139 5.875 4.6875L9.16667 8V3.33334C9.16667 3.09723 9.24667 2.89945 9.40667 2.74C9.56667 2.58056 9.76445 2.50056 10 2.5C10.2356 2.49945 10.4336 2.57945 10.5942 2.74C10.7547 2.90056 10.8344 3.09834 10.8333 3.33334V8L14.125 4.6875C14.2917 4.52084 14.4897 4.4375 14.7192 4.4375C14.9486 4.4375 15.1464 4.52084 15.3125 4.6875C15.4786 4.85417 15.5619 5.05222 15.5625 5.28167C15.5631 5.51111 15.4797 5.70889 15.3125 5.875L12 9.16667H16.6667C16.9028 9.16667 17.1008 9.24667 17.2608 9.40667C17.4208 9.56667 17.5006 9.76445 17.5 10C17.4994 10.2356 17.4194 10.4336 17.26 10.5942C17.1006 10.7547 16.9028 10.8344 16.6667 10.8333H12L15.3125 14.125C15.4792 14.2917 15.5625 14.4897 15.5625 14.7192C15.5625 14.9486 15.4792 15.1464 15.3125 15.3125C15.1458 15.4786 14.9481 15.5619 14.7192 15.5625C14.4903 15.5631 14.2922 15.4797 14.125 15.3125L10.8333 12V16.6667C10.8333 16.9028 10.7533 17.1008 10.5933 17.2608C10.4333 17.4208 10.2356 17.5006 10 17.5C9.76445 17.4994 9.56667 17.4203 9.40667 17.2608Z" fill="#F7F7F7"/>
</svg>
