<svg width="25" height="25" viewBox="0 0 25 25" fill="none" xmlns="http://www.w3.org/2000/svg">
<path d="M15.0761 15.0763C14.3134 15.839 13.279 16.2675 12.2004 16.2675C11.1218 16.2675 10.0874 15.839 9.3247 15.0763C8.56202 14.3137 8.13354 13.2792 8.13354 12.2006C8.13354 11.122 8.56202 10.0876 9.3247 9.32494C10.0874 8.56226 11.1218 8.13379 12.2004 8.13379C13.279 8.13379 14.3134 8.56226 15.0761 9.32494C15.8388 10.0876 16.2673 11.122 16.2673 12.2006C16.2673 13.2792 15.8388 14.3137 15.0761 15.0763Z" stroke="#F7F7F7" stroke-width="1.5" stroke-linecap="round" stroke-linejoin="round"/>
<path d="M3.05005 16.2676V8.13386C3.05005 6.78562 3.58564 5.49259 4.53899 4.53924C5.49235 3.58588 6.78537 3.05029 8.13362 3.05029H16.2673C17.6156 3.05029 18.9086 3.58588 19.862 4.53924C20.8153 5.49259 21.3509 6.78562 21.3509 8.13386V16.2676C21.3509 17.6158 20.8153 18.9089 19.862 19.8622C18.9086 20.8156 17.6156 21.3512 16.2673 21.3512H8.13362C6.78537 21.3512 5.49235 20.8156 4.53899 19.8622C3.58564 18.9089 3.05005 17.6158 3.05005 16.2676Z" stroke="#F7F7F7" stroke-width="1.5"/>
<path d="M17.7925 6.61891L17.8025 6.60791" stroke="#F7F7F7" stroke-width="1.5" stroke-linecap="round" stroke-linejoin="round"/>
</svg>
