<svg width="20" height="20" viewBox="0 0 20 20" fill="none" xmlns="http://www.w3.org/2000/svg">
<path d="M10.0333 1.66655C5.48325 1.66655 1.77492 5.37488 1.77492 9.92488C1.77492 11.3832 2.15825 12.7999 2.87492 14.0499L1.70825 18.3332L6.08325 17.1832C7.29159 17.8415 8.64992 18.1915 10.0333 18.1915C14.5833 18.1915 18.2916 14.4832 18.2916 9.93322C18.2916 7.72488 17.4333 5.64988 15.8749 4.09155C15.1108 3.31997 14.2008 2.70819 13.1978 2.29185C12.1949 1.87551 11.1192 1.66295 10.0333 1.66655ZM10.0416 3.05822C11.8749 3.05822 13.5916 3.77488 14.8916 5.07488C15.5294 5.71281 16.0351 6.47031 16.3797 7.30398C16.7244 8.13765 16.9011 9.03112 16.8999 9.93322C16.8999 13.7165 13.8166 16.7915 10.0333 16.7915C8.79992 16.7915 7.59159 16.4665 6.54159 15.8332L6.29159 15.6915L3.69159 16.3749L4.38325 13.8415L4.21659 13.5749C3.52871 12.4819 3.16464 11.2163 3.16659 9.92488C3.17492 6.14155 6.24992 3.05822 10.0416 3.05822ZM7.10825 6.10821C6.97492 6.10821 6.74992 6.15821 6.55825 6.36655C6.37492 6.57488 5.83325 7.08321 5.83325 8.09155C5.83325 9.10821 6.57492 10.0832 6.66659 10.2249C6.78325 10.3665 8.13325 12.4499 10.2083 13.3332C10.6999 13.5582 11.0833 13.6832 11.3833 13.7749C11.8749 13.9332 12.3249 13.9082 12.6833 13.8582C13.0833 13.7999 13.8999 13.3582 14.0749 12.8749C14.2499 12.3915 14.2499 11.9832 14.1999 11.8915C14.1416 11.8082 14.0083 11.7582 13.7999 11.6665C13.5916 11.5499 12.5749 11.0499 12.3916 10.9832C12.1999 10.9165 12.0833 10.8832 11.9249 11.0832C11.7916 11.2915 11.3916 11.7582 11.2749 11.8915C11.1499 12.0332 11.0333 12.0499 10.8333 11.9499C10.6166 11.8415 9.94992 11.6249 9.16658 10.9249C8.54992 10.3749 8.14158 9.69988 8.01658 9.49155C7.91658 9.29155 8.00825 9.16655 8.10825 9.07488C8.19992 8.98322 8.33325 8.83322 8.41659 8.70822C8.52492 8.59155 8.55825 8.49988 8.62492 8.36655C8.69159 8.22488 8.65825 8.10821 8.60825 8.00821C8.55825 7.91655 8.14159 6.88321 7.96659 6.47488C7.79992 6.07488 7.63325 6.12488 7.49992 6.11655C7.38325 6.11655 7.24992 6.10821 7.10825 6.10821Z" fill="#FE0032"/>
</svg>
