<svg width="74" height="74" viewBox="0 0 74 74" fill="none" xmlns="http://www.w3.org/2000/svg">
<circle cx="37" cy="37" r="37" fill="#FFE4E9"/>
<path d="M27 34.5C27 33.3872 27.3376 32.3006 27.9681 31.3837C28.5987 30.4668 29.4925 29.7627 30.5316 29.3644C31.5707 28.9662 32.7062 28.8925 33.788 29.1531C34.8699 29.4137 35.8472 29.9963 36.591 30.824C36.6434 30.8801 36.7067 30.9247 36.7771 30.9552C36.8474 30.9858 36.9233 31.0015 37 31.0015C37.0767 31.0015 37.1526 30.9858 37.2229 30.9552C37.2933 30.9247 37.3566 30.8801 37.409 30.824C38.1504 29.9909 39.128 29.4034 40.2116 29.1396C41.2952 28.8759 42.4335 28.9484 43.4749 29.3475C44.5163 29.7467 45.4114 30.4535 46.0411 31.3739C46.6708 32.2944 47.0053 33.3848 47 34.5C47 36.79 45.5 38.5 44 40L38.508 45.313C38.3217 45.527 38.0919 45.699 37.834 45.8173C37.5762 45.9357 37.296 45.9979 37.0123 45.9997C36.7285 46.0015 36.4476 45.9429 36.1883 45.8278C35.9289 45.7127 35.697 45.5437 35.508 45.332L30 40C28.5 38.5 27 36.8 27 34.5Z" stroke="#FE0032" stroke-width="2" stroke-linecap="round" stroke-linejoin="round"/>
</svg>
