<svg width="20" height="20" viewBox="0 0 20 20" fill="none" xmlns="http://www.w3.org/2000/svg">
<path d="M14.6934 4.00768C17.3184 6.58935 17.3184 10.721 14.7284 13.2685L10.0025 17.9168L5.27503 13.2685C4.66021 12.6678 4.17167 11.9502 3.83813 11.1579C3.50458 10.3657 3.33276 9.51477 3.33276 8.65518C3.33276 7.79559 3.50458 6.94466 3.83813 6.15242C4.17167 5.36018 4.66021 4.64259 5.27503 4.04185L5.31003 4.00768C6.56017 2.77473 8.24543 2.0835 10.0013 2.0835C11.7571 2.0835 13.4432 2.77473 14.6934 4.00768ZM14.6934 4.00768C14.6584 3.97268 14.6584 3.97268 14.6934 4.00768ZM11.6667 7.91685C11.6667 8.35887 11.4911 8.7828 11.1785 9.09536C10.866 9.40792 10.4421 9.58351 10 9.58351C9.558 9.58351 9.13408 9.40792 8.82152 9.09536C8.50896 8.7828 8.33336 8.35887 8.33336 7.91685C8.33336 7.47482 8.50896 7.0509 8.82152 6.73834C9.13408 6.42578 9.558 6.25018 10 6.25018C10.4421 6.25018 10.866 6.42578 11.1785 6.73834C11.4911 7.0509 11.6667 7.47482 11.6667 7.91685Z" stroke="#FE0032" stroke-width="1.25" stroke-miterlimit="10" stroke-linecap="round" stroke-linejoin="round"/>
</svg>
