<svg width="25" height="25" viewBox="0 0 25 25" fill="none" xmlns="http://www.w3.org/2000/svg">
<path d="M20.8122 2.03335H3.58905C3.39545 2.03066 3.20321 2.06613 3.02332 2.13775C2.84342 2.20936 2.6794 2.31571 2.54061 2.45072C2.40183 2.58573 2.29099 2.74676 2.21445 2.92461C2.1379 3.10246 2.09713 3.29364 2.09448 3.48725V20.9137C2.09713 21.1073 2.1379 21.2985 2.21445 21.4764C2.29099 21.6542 2.40183 21.8152 2.54061 21.9503C2.6794 22.0853 2.84342 22.1916 3.02332 22.2632C3.20321 22.3348 3.39545 22.3703 3.58905 22.3676H20.8122C21.0058 22.3703 21.198 22.3348 21.3779 22.2632C21.5578 22.1916 21.7218 22.0853 21.8606 21.9503C21.9994 21.8152 22.1103 21.6542 22.1868 21.4764C22.2633 21.2985 22.3041 21.1073 22.3068 20.9137V3.48725C22.3041 3.29364 22.2633 3.10246 22.1868 2.92461C22.1103 2.74676 21.9994 2.58573 21.8606 2.45072C21.7218 2.31571 21.5578 2.20936 21.3779 2.13775C21.198 2.06613 21.0058 2.03066 20.8122 2.03335ZM8.22527 19.0531H5.17513V9.90271H8.22527V19.0531ZM6.7002 8.62165C6.27954 8.62165 5.87612 8.45455 5.57867 8.1571C5.28123 7.85966 5.11412 7.45623 5.11412 7.03558C5.11412 6.61493 5.28123 6.2115 5.57867 5.91406C5.87612 5.61661 6.27954 5.44951 6.7002 5.44951C6.92357 5.42417 7.14977 5.44631 7.36399 5.51446C7.57821 5.58261 7.77562 5.69523 7.94329 5.84497C8.11096 5.9947 8.24512 6.17816 8.33698 6.38334C8.42883 6.58852 8.47631 6.81078 8.47631 7.03558C8.47631 7.26038 8.42883 7.48264 8.33698 7.68782C8.24512 7.893 8.11096 8.07646 7.94329 8.22619C7.77562 8.37592 7.57821 8.48855 7.36399 8.5567C7.14977 8.62485 6.92357 8.64698 6.7002 8.62165ZM19.2261 19.0531H16.176V14.1424C16.176 12.9122 15.7388 12.109 14.6306 12.109C14.2876 12.1115 13.9536 12.2191 13.6737 12.4172C13.3937 12.6154 13.1812 12.8946 13.0648 13.2172C12.9853 13.4562 12.9508 13.7078 12.9632 13.9594V19.043H9.91301V9.89255H12.9632V11.1838C13.2402 10.703 13.6432 10.3069 14.1288 10.0381C14.6143 9.76941 15.1639 9.63822 15.7185 9.6587C17.7519 9.6587 19.2261 10.9703 19.2261 13.7866V19.0531Z" fill="#F7F7F7"/>
</svg>
