<svg width="25" height="25" viewBox="0 0 25 25" fill="none" xmlns="http://www.w3.org/2000/svg">
<path d="M15.0393 10.9551L11.3099 8.80783C11.091 8.68177 10.8427 8.61551 10.5901 8.6157C10.3374 8.61588 10.0893 8.68251 9.87048 8.80889C9.6517 8.93527 9.47001 9.11697 9.34363 9.33574C9.21725 9.55452 9.15063 9.80269 9.15045 10.0553V14.3479C9.1474 14.8624 9.42191 15.3382 9.86825 15.5924C10.0871 15.7202 10.3359 15.7877 10.5893 15.7881C10.8428 15.7885 11.0918 15.7216 11.311 15.5944L15.0393 13.4471C15.2583 13.3212 15.4402 13.1398 15.5667 12.9211C15.6933 12.7024 15.7599 12.4543 15.7599 12.2016C15.7599 11.949 15.6933 11.7008 15.5667 11.4822C15.4402 11.2635 15.2583 11.0821 15.0393 10.9562M14.5309 12.5646L10.8036 14.7129C10.7392 14.7512 10.6656 14.7714 10.5906 14.7714C10.5157 14.7714 10.4421 14.7512 10.3776 14.7129C10.313 14.6761 10.2594 14.6226 10.2224 14.5581C10.1854 14.4935 10.1663 14.4203 10.1672 14.3459V10.0553C10.1667 9.98129 10.1859 9.90845 10.2229 9.84429C10.2599 9.78014 10.3133 9.727 10.3776 9.69034C10.4416 9.65115 10.5151 9.63041 10.5901 9.63041C10.6651 9.63041 10.7387 9.65115 10.8026 9.69034L14.5309 11.8387C14.5952 11.875 14.6487 11.9277 14.6859 11.9915C14.7231 12.0553 14.7428 12.1278 14.7428 12.2016C14.7428 12.2755 14.7231 12.348 14.6859 12.4118C14.6487 12.4755 14.5952 12.5283 14.5309 12.5646ZM19.3176 4.06689H5.08359C4.27489 4.0677 3.49954 4.38931 2.92771 4.96115C2.35587 5.53299 2.03425 6.30834 2.03345 7.11704V17.2842C2.03425 18.0929 2.35587 18.8682 2.92771 19.4401C3.49954 20.0119 4.27489 20.3335 5.08359 20.3343H19.3176C20.1263 20.3335 20.9016 20.0119 21.4735 19.4401C22.0453 18.8682 22.3669 18.0929 22.3677 17.2842V7.11704C22.3669 6.30834 22.0453 5.53299 21.4735 4.96115C20.9016 4.38931 20.1263 4.0677 19.3176 4.06689ZM21.351 17.2842C21.3502 17.8232 21.1357 18.34 20.7545 18.7211C20.3734 19.1023 19.8566 19.3168 19.3176 19.3176H5.08359C4.54454 19.3168 4.0278 19.1023 3.64663 18.7211C3.26546 18.34 3.05097 17.8232 3.05016 17.2842V7.11704C3.05097 6.57799 3.26546 6.06124 3.64663 5.68008C4.0278 5.29891 4.54454 5.08442 5.08359 5.08361H19.3176C19.8566 5.08442 20.3734 5.29891 20.7545 5.68008C21.1357 6.06124 21.3502 6.57799 21.351 7.11704V17.2842Z" fill="#F7F7F7"/>
</svg>
