<svg width="24" height="24" viewBox="0 0 24 24" fill="none" xmlns="http://www.w3.org/2000/svg">
<path d="M15.429 10.9999L11.479 7.04994C11.2968 6.86133 11.196 6.60873 11.1983 6.34654C11.2006 6.08434 11.3057 5.83353 11.4911 5.64812C11.6765 5.46271 11.9274 5.35754 12.1896 5.35526C12.4518 5.35298 12.7044 5.45378 12.893 5.63594L18.55 11.2929C18.6431 11.3856 18.7171 11.4958 18.7676 11.6171C18.818 11.7384 18.844 11.8685 18.844 11.9999C18.844 12.1313 18.818 12.2615 18.7676 12.3828C18.7171 12.5041 18.6431 12.6143 18.55 12.7069L12.893 18.3639C12.7035 18.5416 12.4524 18.6386 12.1927 18.6344C11.933 18.6301 11.6852 18.5251 11.5016 18.3413C11.318 18.1576 11.2131 17.9097 11.209 17.65C11.205 17.3903 11.3022 17.1393 11.48 16.9499L15.43 12.9999H5.84396C5.57874 12.9999 5.32439 12.8946 5.13685 12.707C4.94932 12.5195 4.84396 12.2652 4.84396 11.9999C4.84396 11.7347 4.94932 11.4804 5.13685 11.2928C5.32439 11.1053 5.57874 10.9999 5.84396 10.9999H15.429Z" fill="#181818"/>
</svg>
