<svg width="30" height="30" viewBox="0 0 30 30" fill="none" xmlns="http://www.w3.org/2000/svg">
<path d="M17.9751 13.0288L13.041 10.4097C12.8115 10.2827 12.6411 10.0707 12.5665 9.81939C12.4918 9.56803 12.5189 9.29741 12.6418 9.06581C12.7648 8.83421 12.9737 8.66016 13.2238 8.58115C13.4738 8.50214 13.7448 8.52449 13.9785 8.64338L21.0449 12.3943C21.1612 12.4556 21.2641 12.5393 21.3479 12.6405C21.4317 12.7417 21.4947 12.8585 21.5332 12.9841C21.5717 13.1098 21.585 13.2418 21.5723 13.3726C21.5596 13.5034 21.5212 13.6304 21.4593 13.7462L17.7083 20.8126C17.5793 21.038 17.3676 21.2043 17.118 21.2764C16.8685 21.3484 16.6008 21.3206 16.3714 21.1988C16.142 21.0769 15.9691 20.8706 15.8891 20.6235C15.8092 20.3764 15.8285 20.1079 15.943 19.8748L18.5621 14.9407L9.39692 17.7497C9.14335 17.8275 8.86928 17.8013 8.63503 17.6769C8.40077 17.5526 8.2255 17.3402 8.14778 17.0867C8.07006 16.8331 8.09626 16.559 8.22061 16.3248C8.34495 16.0905 8.55727 15.9153 8.81084 15.8375L17.9751 13.0288Z" fill="#FE0032"/>
</svg>
