<svg width="20" height="20" viewBox="0 0 20 20" fill="none" xmlns="http://www.w3.org/2000/svg">
<path d="M12.8575 9.16667L9.56584 5.875C9.41404 5.71783 9.33005 5.50733 9.33195 5.28883C9.33384 5.07033 9.42148 4.86132 9.57599 4.70682C9.7305 4.55231 9.93951 4.46467 10.158 4.46277C10.3765 4.46087 10.587 4.54487 10.7442 4.69666L15.4583 9.41083C15.536 9.48804 15.5976 9.57984 15.6397 9.68095C15.6817 9.78206 15.7034 9.89049 15.7034 10C15.7034 10.1095 15.6817 10.2179 15.6397 10.319C15.5976 10.4202 15.536 10.512 15.4583 10.5892L10.7442 15.3033C10.5863 15.4514 10.377 15.5322 10.1606 15.5287C9.94421 15.5252 9.73767 15.4376 9.58468 15.2845C9.4317 15.1314 9.34427 14.9248 9.34091 14.7084C9.33755 14.492 9.41852 14.2828 9.56667 14.125L12.8583 10.8333H4.87001C4.64899 10.8333 4.43703 10.7455 4.28075 10.5893C4.12447 10.433 4.03667 10.221 4.03667 10C4.03667 9.77898 4.12447 9.56702 4.28075 9.41074C4.43703 9.25446 4.64899 9.16667 4.87001 9.16667H12.8575Z" fill="#F7F7F7"/>
</svg>
